<svg xmlns="http://www.w3.org/2000/svg" viewBox="0 0 133.12 123.26"><defs><style>.cls-1{fill:#c4c4c4;}.cls-2{fill:#f70000;}</style></defs><title>Ресурс 1лого</title><g id="Слой_2" data-name="Слой 2"><g id="Слой_1-2" data-name="Слой 1"><path class="cls-1" d="M39.5,79V74.26H72.86v3c0,9.2,5.43,15.13,13.65,15.13,7.82,0,13.25-5.83,13.25-15.13V0h33.36V79c0,26.05-18.76,44.26-46.61,44.26C58.85,123.26,39.5,105.12,39.5,79Z"/><path class="cls-2" d="M0,79V74.26H33.36v3c0,9.2,5.43,15.13,13.65,15.13,7.82,0,13.25-5.83,13.25-15.13V0H93.62V79c0,26.05-18.76,44.26-46.61,44.26C19.35,123.26,0,105.12,0,79Z"/></g></g></svg>